<svg width="55" height="55" viewBox="0 0 55 55" fill="none" xmlns="http://www.w3.org/2000/svg">
<path d="M40.3604 21.6187C40.7021 21.277 40.7021 20.723 40.3604 20.3813L34.7919 14.8128C34.4502 14.4711 33.8962 14.4711 33.5545 14.8128C33.2128 15.1545 33.2128 15.7085 33.5545 16.0503L38.5043 21L33.5545 25.9497C33.2128 26.2915 33.2128 26.8455 33.5545 27.1872C33.8962 27.5289 34.4502 27.5289 34.7919 27.1872L40.3604 21.6187ZM16 21.875H39.7417V20.125H16V21.875Z" fill="white"/>
<path d="M15.3813 35.6187C15.0396 35.277 15.0396 34.723 15.3813 34.3813L20.9498 28.8128C21.2915 28.4711 21.8455 28.4711 22.1872 28.8128C22.5289 29.1545 22.5289 29.7085 22.1872 30.0503L17.2374 35L22.1872 39.9497C22.5289 40.2915 22.5289 40.8455 22.1872 41.1872C21.8455 41.5289 21.2915 41.5289 20.9498 41.1872L15.3813 35.6187ZM39.7417 35.875H16V34.125H39.7417V35.875Z" fill="white"/>
<circle cx="27.5" cy="27.5" r="26.5" stroke="white" stroke-width="2"/>
</svg>
